# xmcd
#
# Track frame offsets:
#	150
#	8896
#	18955
#	32763
#	45560
#	55656
#	66890
#	78449
#	88008
#	99342
#
# Disc length: 1518 seconds
#
# Revision: 2
# Processed by: cddbd v1.5.2PL0 Copyright (c) Steve Scherf et al.
# Submitted via: EasyCDDAExtractor 10.2.0.1
#
DISCID=6e05ec0a
DTITLE=Bo Diddley - Bo Knows Bo
DYEAR=1995
DGENRE=Blues
TTITLE0=Gun Slinger
TTITLE1=Hey! Bo Diddley
TTITLE2=Doing the Crawdaddy
TTITLE3=Road Runner
TTITLE4=Diddling
TTITLE5=Diddley Daddy
TTITLE6=Diddy Wah Diddy
TTITLE7=Crackin' Up
TTITLE8=Who Do You Love
TTITLE9=You Cna't Judge a Book By Its Cover
EXTD=
EXTT0=
EXTT1=
EXTT2=
EXTT3=
EXTT4=
EXTT5=
EXTT6=
EXTT7=
EXTT8=
EXTT9=
PLAYORDER=
